<?xml version="1.0" encoding="UTF-8"?>
<!DOCTYPE svg PUBLIC "-//W3C//DTD SVG 1.1//EN" "http://www.w3.org/Graphics/SVG/1.1/DTD/svg11.dtd">
<!-- Creator: CorelDRAW 2018 (64-Bit) -->
<svg xmlns="http://www.w3.org/2000/svg" xml:space="preserve" width="210mm" height="297mm" version="1.1" style="shape-rendering:geometricPrecision; text-rendering:geometricPrecision; image-rendering:optimizeQuality; fill-rule:evenodd; clip-rule:evenodd"
viewBox="0 0 21000 29700"
 xmlns:xlink="http://www.w3.org/1999/xlink">
 <defs>
  <style type="text/css">
   <![CDATA[
    .str0 {stroke:#2B2A29;stroke-width:20;stroke-miterlimit:22.9256}
    .fil0 {fill:none}
   ]]>
  </style>
 </defs>
 <g id="Слой_x0020_1">
  <metadata id="CorelCorpID_0Corel-Layer"/>
  <path class="fil0 str0" d="M5656.33 5961.33c-327.53,0.06 -878,0.06 -1205.68,0.06 -327.68,0 -328.1,0 -328.39,0.03 -0.29,0.02 -0.45,0.07 1.27,-8.69 1.71,-8.77 5.29,-26.34 14.14,-46.59 8.85,-20.26 22.96,-43.2 53.39,-59.07 30.42,-15.88 77.17,-24.69 151.25,-43.21 74.08,-18.52 175.51,-46.75 276.05,-76.73 100.54,-29.99 200.21,-61.74 286.64,-105.39 86.43,-43.66 159.63,-99.23 232.39,-165.81 72.76,-66.59 145.08,-144.21 213.87,-240.78 68.79,-96.57 134.06,-212.11 182.57,-347.48 48.5,-135.38 80.25,-290.61 99.09,-415.15 18.84,-124.54 24.77,-218.39 27.59,-265.5 2.81,-47.11 2.5,-47.47 2.29,-47.59 -0.21,-0.13 -0.32,-0.01 -40.06,50.32 -39.75,50.32 -119.13,150.87 -202.03,238.18 -82.9,87.31 -169.34,161.4 -259.74,215.2 -90.4,53.79 -184.76,87.31 -279.13,107.15 -94.37,19.84 -188.74,26.02 -276.49,16.32 -87.76,-9.71 -168.89,-35.28 -258.41,-88.64 -89.52,-53.36 -187.41,-134.49 -259.73,-228.86 -72.32,-94.37 -119.07,-201.97 -144.2,-305.6 -25.14,-103.63 -28.66,-203.29 -24.25,-276.93 4.41,-73.64 16.75,-121.27 39.24,-187.41 22.49,-66.15 55.12,-150.81 96.57,-227.1 41.45,-76.29 91.73,-144.2 164.05,-230.63 72.32,-86.43 166.68,-191.39 276.49,-298.98 109.8,-107.6 235.03,-217.85 367.33,-344.85 132.29,-127 271.63,-270.75 380.55,-401.72 108.92,-130.97 187.42,-249.15 251.36,-366.89 63.94,-117.74 113.34,-235.04 146.41,-336.46 33.07,-101.42 49.82,-186.98 66.58,-272.53 17.58,85.55 35.15,171.1 68.63,272.53 33.49,101.42 82.88,218.72 146.82,336.46 63.94,117.74 142.44,235.92 251.36,366.89 108.92,130.97 248.26,274.72 380.55,401.72 132.3,127 257.53,237.25 367.33,344.85 109.81,107.59 204.17,212.55 276.49,298.98 72.32,86.43 122.6,154.34 164.05,230.63 41.45,76.29 74.08,160.95 96.57,227.1 22.49,66.14 34.83,113.77 39.24,187.41 4.41,73.64 0.89,173.3 -24.25,276.93 -25.13,103.63 -71.88,211.23 -144.2,305.6 -72.32,94.37 -170.21,175.5 -259.73,228.86 -89.52,53.36 -170.65,78.93 -258.41,88.64 -87.75,9.7 -182.12,3.52 -276.49,-16.32 -94.37,-19.84 -188.73,-53.36 -279.13,-107.15 -90.4,-53.8 -176.84,-127.89 -259.74,-215.2 -82.9,-87.31 -162.28,-187.86 -202.03,-238.18 -39.74,-50.33 -39.85,-50.45 -40.06,-50.32 -0.21,0.12 -0.52,0.48 2.29,47.59 2.82,47.11 8.75,140.96 27.59,265.5 18.84,124.54 50.59,279.77 99.09,415.15 48.51,135.37 113.78,250.91 182.57,347.48 68.79,96.57 141.11,174.19 213.87,240.78 72.76,66.58 145.96,122.15 232.39,165.81 86.43,43.65 186.1,75.4 286.64,105.39 100.54,29.98 201.97,58.21 276.05,76.73 74.08,18.52 120.83,27.33 151.25,43.21 30.43,15.87 44.54,38.81 53.39,59.07 8.85,20.25 12.43,37.82 14.14,46.59 1.72,8.76 1.56,8.71 1.27,8.69 -0.29,-0.03 -0.7,-0.03 -328.39,-0.03 -327.68,0 -982.62,0 -1310.16,-0.06z"/>
  <path class="fil0 str0" d="M10860.42 6069.2c-46.3,-164.04 -92.61,-328.08 -175.74,-522.33 -83.12,-194.25 -203.06,-418.7 -324.11,-616.7 -121.05,-198 -243.2,-369.54 -368.22,-537.99 -125.01,-168.46 -252.89,-333.82 -379.23,-502.93 -126.34,-169.12 -251.13,-341.99 -358.95,-503.38 -107.82,-161.4 -198.66,-311.33 -260.84,-436.12 -62.18,-124.8 -95.69,-224.46 -117.3,-319.71 -21.61,-95.25 -31.31,-186.09 -24.48,-295.01 6.84,-108.92 30.21,-235.93 74.08,-347.27 43.88,-111.35 108.27,-207.04 189.19,-288.84 80.92,-81.8 178.37,-149.71 279.79,-196.89 101.43,-47.19 206.83,-73.65 295.46,-86.44 88.64,-12.79 160.51,-11.9 242.09,-0.87 81.58,11.02 172.87,32.18 259.3,71.43 86.43,39.25 168.01,96.57 240.11,164.48 72.1,67.91 134.72,146.41 186.75,216.53 52.04,70.11 93.49,131.84 127,196.01 33.52,64.16 59.09,130.74 76.95,174.4 17.86,43.66 28.01,64.38 38.15,85.11 10.14,-20.73 20.29,-41.45 38.15,-85.11 17.86,-43.66 43.43,-110.24 76.95,-174.4 33.51,-64.17 74.96,-125.9 127,-196.01 52.03,-70.12 114.65,-148.62 186.75,-216.53 72.1,-67.91 153.68,-125.23 240.11,-164.48 86.43,-39.25 177.72,-60.41 259.3,-71.43 81.58,-11.03 153.45,-11.92 242.09,0.87 88.63,12.79 194.03,39.25 295.46,86.44 101.42,47.18 198.87,115.09 279.79,196.89 80.92,81.8 145.31,177.49 189.19,288.84 43.87,111.34 67.24,238.35 74.08,347.27 6.83,108.92 -2.87,199.76 -24.48,295.01 -21.61,95.25 -55.12,194.91 -117.3,319.71 -62.18,124.79 -153.02,274.72 -260.84,436.12 -107.82,161.39 -232.61,334.26 -358.95,503.38 -126.34,169.11 -254.22,334.47 -379.23,502.93 -125.02,168.45 -247.17,339.99 -368.22,537.99 -121.05,198 -240.99,422.45 -324.11,616.7 -83.12,194.25 -129.44,358.29 -175.74,522.33z"/>
  <path class="fil0 str0" d="M13608.67 9641.93c-261.06,-328.95 -522.12,-657.91 -731.14,-935.27 -209.02,-277.37 -366.01,-503.15 -514.62,-721.87 -148.6,-218.73 -288.83,-430.4 -429.06,-642.07 -140.23,211.67 -280.46,423.35 -429.06,642.07 -148.6,218.72 -305.6,444.51 -514.62,721.87 -209.02,277.36 -470.08,606.32 -731.14,935.27 261.06,328.95 522.12,657.91 731.14,935.27 209.02,277.37 366.01,503.15 514.62,721.87 148.6,218.73 288.83,430.4 429.06,642.07 140.23,-211.67 280.46,-423.35 429.06,-642.07 148.6,-218.72 305.6,-444.51 514.62,-721.87 209.02,-277.36 470.08,-606.32 731.14,-935.27z"/>
  <path class="fil0 str0" d="M6054.97 11299.23c-503.26,0 -962.11,-0.01 -1220.05,-0.01 -331.12,-0.01 -331.14,-0.02 -331.15,-0.07 0,-0.04 0,-0.1 0.12,-12.42 0.13,-12.31 0.38,-36.86 30.59,-64.85 30.22,-27.99 90.42,-59.41 217.91,-103.01 127.5,-43.6 322.29,-99.39 455.41,-147.57 133.12,-48.17 204.56,-88.74 287.46,-164.59 82.91,-75.84 177.27,-186.97 259.73,-323.23 82.46,-136.26 153.02,-297.66 196.23,-453.11 43.21,-155.44 59.08,-304.93 67.78,-408.78 8.71,-103.85 10.26,-162.05 10.59,-191.27 0.33,-29.21 -0.55,-29.43 -31.87,26.68 -31.31,56.11 -93.05,168.56 -169.79,268.88 -76.73,100.32 -168.46,188.51 -269.44,265.24 -100.98,76.73 -211.23,142 -322.36,185.65 -111.12,43.66 -223.12,65.71 -332.05,78.05 -108.92,12.35 -214.75,15 -324.12,-6.61 -109.36,-21.61 -222.25,-67.47 -321.47,-131.85 -99.22,-64.38 -184.76,-147.29 -255.76,-240.78 -71,-93.48 -127.44,-197.55 -162.28,-299.42 -34.84,-101.86 -48.07,-201.52 -48.95,-315.29 -0.88,-113.77 10.58,-241.66 43.66,-358.52 33.07,-116.85 87.75,-222.69 147.72,-304.27 59.98,-81.58 125.24,-138.9 190.5,-187.85 65.27,-48.95 130.54,-89.52 208.59,-119.07 78.05,-29.54 168.89,-48.07 262.37,-54.68 93.49,-6.62 189.63,-1.32 275.18,13.23 85.55,14.55 160.51,38.37 219.04,63.34 58.53,24.98 100.63,51.13 122.17,64.2 21.54,13.07 22.53,13.07 23.08,12.74 0.55,-0.33 0.66,-0.99 -14.78,-26.24 -15.43,-25.24 -46.42,-75.07 -81.87,-146.4 -35.44,-71.33 -75.36,-164.16 -100.83,-261.51 -25.46,-97.35 -36.49,-199.21 -31.2,-302.39 5.3,-103.19 26.91,-207.69 69.46,-305.36 42.56,-97.67 106.06,-188.52 177.05,-267.89 71,-79.38 149.5,-147.29 231.96,-199.76 82.46,-52.48 168.9,-89.52 253.56,-112.89 68.02,-18.77 136.83,-29.09 206.75,-33.37 14.52,-0.89 29.1,-1.52 43.73,-1.91 28.59,0 57.17,0 71.46,0 14.29,0 14.3,0 14.3,0 82.9,2.2 165.82,11.91 250.48,35.28 84.66,23.37 171.1,60.41 253.56,112.89 82.46,52.47 160.96,120.38 231.96,199.76 70.99,79.37 134.49,170.22 177.05,267.89 42.55,97.67 64.16,202.17 69.46,305.36 5.29,103.18 -5.74,205.04 -31.2,302.39 -25.47,97.35 -65.39,190.18 -100.83,261.51 -35.45,71.33 -66.44,121.16 -81.87,146.4 -15.44,25.25 -15.33,25.91 -14.78,26.24 0.55,0.33 1.54,0.33 23.08,-12.74 21.54,-13.07 63.64,-39.22 122.17,-64.2 58.53,-24.97 133.49,-48.79 219.04,-63.34 85.55,-14.55 181.69,-19.85 275.18,-13.23 93.48,6.61 184.32,25.14 262.37,54.68 78.05,29.55 143.32,70.12 208.59,119.07 65.26,48.95 130.52,106.27 190.5,187.85 59.97,81.58 114.65,187.42 147.72,304.27 33.08,116.86 44.54,244.75 43.66,358.52 -0.88,113.77 -14.11,213.43 -48.95,315.29 -34.84,101.87 -91.28,205.94 -162.28,299.42 -71,93.49 -156.54,176.4 -255.76,240.78 -99.22,64.38 -212.11,110.24 -321.47,131.85 -109.37,21.61 -215.2,18.96 -324.12,6.61 -108.93,-12.34 -220.93,-34.39 -332.05,-78.05 -111.13,-43.65 -221.38,-108.92 -322.36,-185.65 -100.98,-76.73 -192.71,-164.92 -269.44,-265.24 -76.74,-100.32 -138.48,-212.77 -169.79,-268.88 -31.32,-56.11 -32.2,-55.89 -31.87,-26.68 0.33,29.22 1.88,87.42 10.59,191.27 8.7,103.85 24.57,253.34 67.78,408.78 43.21,155.45 113.77,316.85 196.23,453.11 82.46,136.26 176.82,247.39 259.73,323.23 82.9,75.85 154.34,116.42 287.46,164.59 133.12,48.18 327.91,103.97 455.41,147.57 127.49,43.6 187.69,75.02 217.91,103.01 30.21,27.99 30.46,52.54 30.59,64.85 0.12,12.32 0.12,12.38 0.12,12.42 -0.01,0.05 -0.02,0.06 -331.15,0.07 -331.13,0.01 -608.91,0.01 -1271.15,0.01z"/>
 </g>
</svg>
